# xmcd
#
# Track frame offsets: 
#        150
#        27418
#        51388
#        70965
#        86799
#        108134
#        129309
#        155322
#        170404
#        189165
#        197463
#        207727
#        225926
#        237993
#        253097
#        285101
#
# Disc length: 4440 seconds
#
# Revision: 1
# Processed by: cddbd v1.5.2PL0 Copyright (c) Steve Scherf et al.
# Submitted via: ExactAudioCopyFreeDBPlugin 1.0
#
DISCID=d3115610
DTITLE=Various Artist - Women in Blue
DYEAR=2003
DGENRE=Blues
TTITLE0=Cassandra Wilson - The Weight
TTITLE1=Patricia Barber - Ode to Billy Joe
TTITLE2=Holly Cole - Invitation to the Blues
TTITLE3=Bebel Gilberto - So Nice
TTITLE4=Eliane Elias - Just for you
TTITLE5=Melissa Enrico - Love Junkyard
TTITLE6=Wichita Lineman - Cassandra Wilson
TTITLE7=Cecille Norby - By the time I get to Phoenix
TTITLE8=Hunter&Jones - More than this
TTITLE9=Peggy Lee - The more I see you
TTITLE10=Peggy Lee - I'll be seeing you
TTITLE11=Laura Fygi - Corcavado
TTITLE12=Julie London - More
TTITLE13=Holly Cole - Alison
TTITLE14=Nancy Wilson - Suzanne
TTITLE15=data - data track
EXTD=Compilation\nBlue Note Records\nEMI
EXTT0=
EXTT1=
EXTT2=
EXTT3=
EXTT4=
EXTT5=
EXTT6=
EXTT7=
EXTT8=
EXTT9=
EXTT10=
EXTT11=
EXTT12=
EXTT13=
EXTT14=
EXTT15=
PLAYORDER=
